# xmcd
#
# Track frame offsets: 
#        150
#        30702
#        61230
#        77212
#        112842
#        141562
#        171690
#        188875
#        220167
#        243812
#        268555
#
# Disc length: 3922 seconds
#
# Revision: 7
# Processed by: cddbd v1.5.2PL0 Copyright (c) Steve Scherf et al.
# Submitted via: ExactAudioCopy v0.99pb4
#
DISCID=9e0f500b
DTITLE=Gov't Mule - Dose
DYEAR=1998
DGENRE=Blues/Rock
TTITLE0=Blind Man in the Dark
TTITLE1=Thorazine Shuffle
TTITLE2=Thelonius Beck
TTITLE3=Game Face
TTITLE4=Towering Fool
TTITLE5=Birth of the Mule
TTITLE6=John the Revelator
TTITLE7=She Said, She Said
TTITLE8=Larger Than Life
TTITLE9=Raven Black Night
TTITLE10=I Shall Return
EXTD=YEAR: 1998
EXTT0=
EXTT1=
EXTT2=
EXTT3=
EXTT4=
EXTT5=
EXTT6=
EXTT7=
EXTT8=
EXTT9=
EXTT10=
PLAYORDER=
